# This file uses centimeters as units for non-parametric coordinates.

mtllib portalPuertaIzquierda.mtl
g default
v -1.912264 0.834979 -0.217974
v -1.912264 5.001966 -0.217974
v -1.899361 5.001966 -0.067391
v -1.899361 0.834979 -0.067391
v -1.899361 5.001966 -0.067391
v -1.899361 5.001966 -0.067391
v -1.899361 5.001966 -0.067391
v -1.899361 5.001966 -0.067391
v -1.899361 5.001966 -0.067391
v -1.899361 5.001966 -0.067391
v -1.899361 5.001966 -0.067391
v -1.899361 5.001966 -0.067391
v -1.899361 5.001966 -0.067391
v -1.899361 5.001966 -0.067391
v -1.899361 0.834979 -0.067391
v -1.899361 0.834979 -0.067391
v -1.899361 0.834979 -0.067391
v -1.899361 0.834979 -0.067391
v -1.899361 0.834979 -0.067391
v -1.899361 0.834979 -0.067391
v -1.899361 0.834979 -0.067391
v -1.899361 0.834979 -0.067391
v -1.899361 0.834979 -0.067391
v -1.899361 0.834979 -0.067391
v -0.309893 5.001966 -0.217974
v -0.307261 5.001966 -0.217974
v -0.309477 3.948252 -0.217974
v 0.365717 3.472723 -0.217974
v 0.366710 2.579772 -0.217974
v -0.312037 1.922038 -0.217974
v -0.307620 0.834979 -0.217974
v -0.293561 0.834979 -0.067391
v -0.293561 0.834979 -0.067391
v -0.293561 0.834979 -0.067391
v -0.293561 0.834979 -0.067391
v -0.293562 0.834979 -0.067391
v -0.293562 0.834979 -0.067391
v -0.293562 0.834979 -0.067391
v -0.293562 0.834979 -0.067391
v -0.293562 0.834979 -0.067391
v -0.293562 0.834979 -0.067391
v -0.293558 0.834979 -0.067391
v 0.382482 2.601010 -0.067391
v -0.298952 1.921896 -0.067391
v 0.382959 3.468648 -0.067391
v -0.296564 3.947869 -0.067391
v -0.294795 5.001966 -0.067391
v -0.294799 5.001966 -0.067391
v -0.294799 5.001966 -0.067391
v -0.294799 5.001966 -0.067391
v -0.294799 5.001966 -0.067391
v -0.294799 5.001966 -0.067391
v -0.294799 5.001966 -0.067391
v -0.294799 5.001966 -0.067391
v -0.294799 5.001966 -0.067391
v -0.294799 5.001966 -0.067391
v -0.294799 5.001966 -0.067391
v -0.294673 5.002304 -0.066846
v -0.296574 3.948252 -0.066846
v 0.383404 3.468856 -0.066846
v 0.382595 2.601335 -0.066846
v -0.298904 1.922039 -0.066846
v -0.293577 0.835283 -0.066846
v -0.307261 5.001966 -0.217974
v -0.309477 3.948252 -0.217974
v 0.365717 3.472723 -0.217974
v 0.366710 2.579772 -0.217974
v -0.312037 1.922038 -0.217974
v -0.307620 0.834979 -0.217974
v -0.309893 5.001966 -0.217974
v -1.912264 5.001966 -0.217974
v -1.899361 5.001966 -0.067391
v -0.294799 5.001966 -0.067391
vt 0.492871 0.532085
vt 0.958814 0.033849
vt 0.540534 0.532085
vt 0.492938 0.532085
vt 0.500072 1.000000
vt 0.499995 0.750000
vt 0.625000 0.750000
vt 0.625000 1.000000
vt 0.875000 0.000000
vt 0.415476 0.266052
vt 0.587711 0.425475
vt 0.587832 0.629155
vt 0.416079 0.741653
vt 0.500077 0.500000
vt 0.625000 0.500000
vt 0.625000 0.750000
vt 0.499995 0.750000
vt 0.492015 0.489343
vt 0.505228 0.489343
vt 0.625000 0.500000
vt 0.500077 0.500000
vt 0.625000 0.500000
vt 0.500077 0.500000
vt 0.625000 0.500000
vt 0.500077 0.500000
vt 0.625000 0.500000
vt 0.500077 0.500000
vt 0.625000 0.500000
vt 0.500077 0.500000
vt 0.625000 0.500000
vt 0.500077 0.500000
vt 0.625000 0.500000
vt 0.500077 0.500000
vt 0.625000 0.500000
vt 0.500077 0.500000
vt 0.625000 0.500000
vt 0.500077 0.500000
vt 0.625000 0.750000
vt 0.625000 0.750000
vt 0.625000 0.750000
vt 0.625000 0.750000
vt 0.625000 0.750000
vt 0.625000 0.750000
vt 0.625000 0.750000
vt 0.625000 0.750000
vt 0.625000 0.750000
vt 0.499995 0.750000
vt 0.499995 0.750000
vt 0.499995 0.750000
vt 0.499995 0.750000
vt 0.499995 0.750000
vt 0.499995 0.750000
vt 0.499995 0.750000
vt 0.499995 0.750000
vt 0.499995 0.750000
vt 0.439124 0.440270
vt 0.544890 0.440270
vt 0.544890 0.538417
vt 0.439124 0.538417
vt 0.439124 0.440270
vt 0.544890 0.440270
vt 0.544890 0.538417
vt 0.439124 0.538417
vt 0.439124 0.440270
vt 0.544890 0.440270
vt 0.544890 0.538417
vt 0.439124 0.538417
vt 0.439124 0.440270
vt 0.544890 0.440270
vt 0.544890 0.538417
vt 0.439124 0.538417
vt 0.439124 0.440270
vt 0.544890 0.440270
vt 0.544890 0.538417
vt 0.439124 0.538417
vt 0.416526 0.989104
vt 0.010964 0.989104
vt 0.010964 0.010896
vt 0.416839 0.010896
vt 0.508167 0.935493
vt 0.508696 0.707493
vt 0.347457 0.604599
vt 0.347220 0.411384
vt 0.509307 0.269065
vt 0.508252 0.033849
vt 0.508795 0.935493
vt 0.958814 0.935493
vt 0.875000 0.250000
vt 0.625000 0.500000
vt 0.500077 0.500000
vn 0.000000 0.000000 -1.000000
vn -0.000003 0.000000 -1.000000
vn -0.000000 0.000000 -1.000000
vn 0.000000 0.000000 -1.000000
vn 0.000000 0.000000 -1.000000
vn 0.000000 0.000000 -1.000000
vn 0.000000 0.000000 -1.000000
vn 0.000000 0.000000 -1.000000
vn 0.000000 0.000000 -1.000000
vn -0.000000 -1.000000 0.000002
vn -0.000000 -1.000000 0.000001
vn -0.000000 -1.000000 0.000000
vn 0.000000 -1.000000 0.000000
vn -0.996349 0.000000 0.085376
vn -0.996349 0.000000 0.085376
vn -0.996349 0.000000 0.085376
vn -0.996349 0.000000 0.085376
vn -0.000000 -0.000000 1.000000
vn -0.000000 -0.000000 1.000000
vn -0.000000 -0.000000 1.000000
vn -0.000000 0.000000 1.000000
vn 0.000000 0.000000 1.000000
vn -0.000000 0.000000 1.000000
vn -0.000000 0.000000 1.000000
vn -0.000000 0.000000 1.000000
vn 0.000000 0.000000 -0.000000
vn 0.000000 0.000000 -0.000000
vn 0.000000 0.000000 -0.000000
vn 0.000000 0.000000 -0.000000
vn 0.000000 0.000000 -0.000000
vn 0.000000 0.000000 -0.000000
vn 0.000000 0.000000 -0.000000
vn 0.000000 0.000000 -0.000000
vn 0.000000 0.000000 -0.000000
vn 0.000000 0.000000 -0.000000
vn 0.000000 0.000000 -0.000000
vn 0.000000 0.000000 -0.000000
vn 0.000000 0.000000 -0.000000
vn 0.000000 0.000000 -0.000000
vn 0.000000 0.000000 -0.000000
vn 0.000000 0.000000 -0.000000
vn 0.000000 0.000000 -0.000000
vn 0.000000 0.000000 -0.000000
vn 0.000000 0.000000 -0.000000
vn 0.000000 0.000000 -0.000000
vn 0.000000 0.000000 -0.000000
vn 0.000000 0.000000 -0.000000
vn 0.000000 0.000000 -0.000000
vn 0.000000 0.000000 -0.000000
vn 0.000000 0.000000 -0.000000
vn 0.000000 0.000000 -0.000000
vn 0.000000 0.000000 -0.000000
vn 0.000000 0.000000 -0.000000
vn 0.000000 0.000000 -0.000000
vn 0.000000 0.000000 -0.000000
vn 0.000000 0.000000 -0.000000
vn 0.000000 0.000000 -0.000000
vn 0.000000 0.000000 -0.000000
vn 0.000000 0.000000 -0.000000
vn 0.000000 0.000000 -0.000000
vn 0.000000 0.000000 -0.000000
vn 0.000000 0.424692 -0.905338
vn 0.000000 0.424692 -0.905338
vn 0.000000 0.000000 -0.000000
vn 0.000000 0.000000 -0.000000
vn 0.000000 0.000000 -0.000000
vn 0.000000 0.000000 -0.000000
vn 0.000000 0.000000 -0.000000
vn 0.000000 0.000000 -0.000000
vn 0.000000 0.000000 -0.000000
vn 0.000000 0.000000 -0.000000
vn 0.000000 0.000000 -0.000000
vn 0.000000 0.000000 -0.000000
vn 0.000000 0.000000 -0.000000
vn 0.000000 0.000000 -0.000000
vn 0.000000 0.000000 -0.000000
vn 0.000000 0.000000 -0.000000
vn 0.000000 0.000000 -0.000000
vn 0.000000 0.000000 -0.000000
vn 0.000000 0.000000 -0.000000
vn 0.000000 0.000000 -0.000000
vn 0.000000 0.000000 -0.000000
vn 0.000000 0.000000 -0.000000
vn 0.000000 0.000000 -0.000000
vn 0.000000 0.000000 -0.000000
vn 0.000000 0.000000 -0.000000
vn 0.000000 0.000000 -0.000000
vn 0.000000 0.000000 -0.000000
vn 0.000000 0.000000 -0.000000
vn 0.000000 0.000000 -0.000000
vn 0.000000 0.000000 -0.000000
vn 0.000000 0.000000 -0.000000
vn 0.000000 0.000000 -0.000000
vn 0.000000 0.000000 -0.000000
vn 0.000000 0.000000 -0.000000
vn 0.000000 0.000000 -0.000000
vn 0.000000 0.000000 -0.000000
vn 0.000000 0.000000 -0.000000
vn 0.000000 0.000000 -0.000000
vn 0.000000 0.000000 -0.000000
vn 0.000000 0.000000 -0.000000
vn 0.000000 0.000000 -0.000000
vn 0.000000 0.000000 -0.000000
vn 0.000000 0.000000 -0.000000
vn 0.000000 0.000000 -0.000000
vn 0.000000 0.000000 -0.000000
vn 0.000000 0.000000 -0.000000
vn 0.000000 0.000000 -0.000000
vn 0.000000 0.000000 -0.000000
vn 0.000000 0.000000 -0.000000
vn 0.000000 0.000000 -0.000000
vn 0.000000 0.000000 -0.000000
vn 0.000000 0.000000 -0.000000
vn 0.000000 0.000000 -0.000000
vn 0.000000 0.000000 -0.000000
vn 0.000000 0.000000 -0.000000
vn 0.000000 0.000000 -0.000000
vn 0.000000 0.000000 -0.000000
vn -0.000000 0.000000 0.000000
vn -0.000000 0.000000 1.000000
vn -0.000000 0.000000 0.000000
vn 0.000000 0.000000 -0.000000
vn 0.000000 0.000000 -0.000000
vn 0.000000 0.000000 -0.000000
vn 0.000000 0.000000 -0.000000
vn 0.000000 0.000000 -0.000000
vn 0.000000 0.000000 -0.000000
vn 0.000000 0.000000 -0.000000
vn 0.000000 0.000000 -0.000000
vn 0.000000 0.000000 -0.000000
vn 0.000000 0.000000 -0.000000
vn 0.000000 0.000000 -0.000000
vn 0.000000 0.000000 -0.000000
vn 0.000000 0.000000 -0.000000
vn 0.000000 0.000000 -0.000000
vn 0.000000 0.000000 -0.000000
vn 0.000000 0.000000 -0.000000
vn 0.000000 0.000000 -0.000000
vn 0.000000 0.000000 -0.000000
vn 0.000000 0.000000 -0.000000
vn 0.000000 0.000000 -0.000000
vn 0.000000 0.000000 -0.000000
vn 0.000000 -0.000000 -0.000000
vn 0.000000 -0.424960 -0.905212
vn 0.000000 -0.424960 -0.905212
vn 0.000000 1.000000 -0.000000
vn -0.000000 1.000000 0.000001
vn 0.000000 1.000000 -0.000000
vn -0.000000 1.000000 0.000002
vn -0.000000 1.000000 0.000002
vn 0.996373 -0.002096 -0.085070
vn 0.996399 -0.002051 -0.084759
vn 0.996522 -0.001842 -0.083312
vn 0.996548 -0.001797 -0.083001
vn 0.575116 0.816597 -0.049103
vn 0.575529 0.816441 -0.046800
vn 0.575177 0.816574 -0.048765
vn 0.575588 0.816418 -0.046469
vn 0.994505 0.001106 -0.104687
vn 0.994356 0.000859 -0.106094
vn 0.993394 -0.000660 -0.114748
vn 0.993218 -0.000926 -0.116261
vn 0.694634 -0.716827 -0.060357
vn 0.696595 -0.715883 -0.047615
vn 0.704485 -0.709568 0.014617
vn 0.705707 -0.707995 0.026843
vn 0.995702 0.004046 -0.092527
vn 0.995787 0.004176 -0.091606
vn 0.996154 0.004754 -0.087493
vn 0.996234 0.004884 -0.086570
s 1
g polySurface1 pCube7
usemtl lambert3SG
f 64/80/1 65/81/2 70/86/3
f 69/85/4 1/2/5 68/84/6
f 1/2/5 71/87/7 68/84/6
f 71/87/7 70/86/3 68/84/6
f 70/86/3 65/81/2 68/84/6
f 68/84/6 65/81/2 67/83/8
f 65/81/2 66/82/9 67/83/8
s 3
f 32/6/10 4/7/11 69/5/12
f 69/5/12 4/7/11 1/8/13
s 4
f 1/2/14 4/9/15 71/87/16
f 71/87/16 4/9/15 72/88/17
s 5
f 47/76/18 14/77/19 46/13/20
f 14/77/19 24/78/21 46/13/20
f 46/13/20 24/78/21 45/12/22
f 45/12/22 24/78/21 43/11/23
f 43/11/23 24/78/21 44/10/24
f 44/10/24 24/78/21 42/79/25
s 6
f 56/21/26 73/90/27 5/20/28
f 73/90/27 72/89/29 5/20/28
s 7
f 55/23/30 56/21/31 6/22/32
f 56/21/31 5/20/33 6/22/32
s 8
f 54/25/34 55/23/35 7/24/36
f 55/23/35 6/22/37 7/24/36
s 9
f 53/27/38 54/25/39 8/26/40
f 54/25/39 7/24/41 8/26/40
s 10
f 52/29/42 53/27/43 9/28/44
f 53/27/43 8/26/45 9/28/44
s 11
f 51/31/46 52/29/47 10/30/48
f 52/29/47 9/28/49 10/30/48
s 12
f 50/33/50 51/31/51 11/32/52
f 51/31/51 10/30/53 11/32/52
s 13
f 49/35/54 50/33/55 12/34/56
f 50/33/55 11/32/57 12/34/56
s 14
f 48/37/58 49/35/59 13/36/60
f 49/35/59 12/34/61 13/36/60
s 15
f 47/14/62 48/37/63 14/15/64
f 48/37/63 13/36/65 14/15/64
s 16
f 5/20/66 72/19/67 15/38/68
f 72/19/67 4/7/69 15/38/68
s 17
f 6/22/70 5/20/71 16/39/72
f 5/20/71 15/38/73 16/39/72
s 18
f 7/24/74 6/22/75 17/40/76
f 6/22/75 16/39/77 17/40/76
s 19
f 8/26/78 7/24/79 18/41/80
f 7/24/79 17/40/81 18/41/80
s 20
f 9/28/82 8/26/83 19/42/84
f 8/26/83 18/41/85 19/42/84
s 21
f 10/30/86 9/28/87 20/43/88
f 9/28/87 19/42/89 20/43/88
s 22
f 11/32/90 10/30/91 21/44/92
f 10/30/91 20/43/93 21/44/92
s 23
f 12/34/94 11/32/95 22/45/96
f 11/32/95 21/44/97 22/45/96
s 24
f 13/36/98 12/34/99 23/46/100
f 12/34/99 22/45/101 23/46/100
s 25
f 14/15/102 13/36/103 24/16/104
f 13/36/103 23/46/105 24/16/104
s 26
f 15/38/106 4/7/107 33/47/108
f 4/7/107 32/6/109 33/47/108
s 27
f 16/39/110 15/38/111 34/48/112
f 15/38/111 33/47/113 34/48/112
s 28
f 17/40/114 16/39/115 35/49/116
f 16/39/115 34/48/117 35/49/116
s 29
f 18/41/118 17/40/119 36/50/120
f 17/40/119 35/49/121 36/50/120
s 30
f 19/42/122 18/41/123 37/51/124
f 18/41/123 36/50/125 37/51/124
s 31
f 20/43/126 19/42/127 38/52/128
f 19/42/127 37/51/129 38/52/128
s 32
f 21/44/130 20/43/131 39/53/132
f 20/43/131 38/52/133 39/53/132
s 33
f 22/45/134 21/44/135 40/54/136
f 21/44/135 39/53/137 40/54/136
s 34
f 23/46/138 22/45/139 41/55/140
f 22/45/139 40/54/141 41/55/140
s 35
f 24/16/142 23/46/143 42/17/144
f 23/46/143 41/55/145 42/17/144
s 36
f 2/3/146 3/19/147 25/4/148
f 57/18/149 26/1/150 3/19/147
f 25/4/148 3/19/147 26/1/150
s 37
f 27/56/151 26/57/152 59/59/153
f 59/59/153 26/57/152 58/58/154
s 38
f 27/61/155 59/62/156 28/60/157
f 28/60/157 59/62/156 60/63/158
s 39
f 29/64/159 28/65/160 61/67/161
f 61/67/161 28/65/160 60/66/162
s 40
f 30/68/163 29/69/164 62/71/165
f 62/71/165 29/69/164 61/70/166
s 41
f 31/72/167 30/73/168 63/75/169
f 63/75/169 30/73/168 62/74/170
